# Blender 4.1.1
# www.blender.org
mtllib zovutebatih.mtl
o Cube
v 146.779373 1.997482 -47.526398
v 146.779373 1.789712 -47.526398
v 146.779373 1.997482 47.024605
v 146.779373 1.789712 47.024605
v -22.090439 1.997482 -47.526398
v -22.090439 1.789712 -47.526398
v -22.090439 1.997482 47.024605
v -22.090439 1.789712 47.024605
vn -0.0000 1.0000 -0.0000
vn -0.0000 -0.0000 1.0000
vn -1.0000 -0.0000 -0.0000
vn -0.0000 -1.0000 -0.0000
vn 1.0000 -0.0000 -0.0000
vn -0.0000 -0.0000 -1.0000
vt 0.625000 0.500000
vt 0.875000 0.500000
vt 0.875000 0.750000
vt 0.625000 0.750000
vt 0.375000 0.750000
vt 0.625000 1.000000
vt 0.375000 1.000000
vt 0.375000 0.000000
vt 0.625000 0.000000
vt 0.625000 0.250000
vt 0.375000 0.250000
vt 0.125000 0.500000
vt 0.375000 0.500000
vt 0.125000 0.750000
s 0
usemtl Material
f 1/1/1 5/2/1 7/3/1 3/4/1
f 4/5/2 3/4/2 7/6/2 8/7/2
f 8/8/3 7/9/3 5/10/3 6/11/3
f 6/12/4 2/13/4 4/5/4 8/14/4
f 2/13/5 1/1/5 3/4/5 4/5/5
f 6/11/6 5/10/6 1/1/6 2/13/6
o Куб
v 21.715199 -0.036192 -47.309162
v 21.715199 17.544312 -47.309162
v 21.715199 -0.036192 47.046261
v 21.715199 17.544312 47.046261
v 22.056126 -0.036192 -47.309162
v 22.056126 17.544312 -47.309162
v 22.056126 -0.036192 47.046261
v 22.056126 17.544312 47.046261
v 21.715199 16.062801 -42.489422
v 21.715199 16.062801 -29.074427
v 21.715199 0.618537 -42.489422
v 21.715199 0.618537 -29.074427
v 22.056126 16.062801 -29.074427
v 22.056126 0.618537 -42.489422
v 22.056126 16.062801 -42.489422
v 22.056126 0.618537 -29.074427
vn -1.0000 -0.0000 -0.0000
vn -0.0000 -0.0000 1.0000
vn 1.0000 -0.0000 -0.0000
vn -0.0000 -0.0000 -1.0000
vn -0.0000 -1.0000 -0.0000
vn -0.0000 1.0000 -0.0000
vt 0.625000 0.000000
vt 0.625000 0.250000
vt 0.375000 0.250000
vt 0.375000 0.000000
vt 0.384310 0.012770
vt 0.384310 0.048314
vt 0.603932 0.048314
vt 0.603932 0.012770
vt 0.625000 0.500000
vt 0.375000 0.500000
vt 0.603933 0.737230
vt 0.625000 0.750000
vt 0.375000 0.750000
vt 0.384310 0.737230
vt 0.603932 0.701686
vt 0.384310 0.701686
vt 0.625000 1.000000
vt 0.375000 1.000000
vt 0.125000 0.500000
vt 0.125000 0.750000
vt 0.875000 0.500000
vt 0.875000 0.750000
vt 0.375000 0.339510
vt 0.375000 0.372413
vt 0.625000 0.372413
vt 0.625000 0.339510
vt 0.375000 0.877587
vt 0.375000 0.910490
vt 0.625000 0.910490
vt 0.625000 0.877587
vt 0.247413 0.750000
vt 0.247413 0.500000
vt 0.214510 0.500000
vt 0.214510 0.750000
vt 0.752587 0.500000
vt 0.752587 0.750000
vt 0.785490 0.750000
vt 0.785490 0.500000
s 0
f 10/15/7 17/22/7 18/21/7 20/20/7 19/19/7 9/18/7 11/17/7 12/16/7
f 9/18/7 19/19/7 17/22/7 10/15/7
f 11/17/8 15/24/8 16/23/8 12/16/8
f 23/25/9 22/28/9 13/27/9 14/26/9
f 22/28/9 24/30/9 21/29/9 23/25/9 14/26/9 16/23/9 15/24/9 13/27/9
f 13/27/10 9/32/10 10/31/10 14/26/10
f 11/33/11 9/34/11 13/27/11 15/24/11
f 16/23/12 14/26/12 10/36/12 12/35/12
f 21/37/10 24/40/10 20/39/10 18/38/10
f 17/41/8 19/44/8 22/43/8 23/42/8
f 17/45/11 23/48/11 21/47/11 18/46/11
f 20/49/12 24/52/12 22/51/12 19/50/12
o Куб.001
v -21.893898 0.153404 -46.700645
v -21.893898 17.346039 -46.700645
v -21.893898 0.153404 -47.279961
v -21.893898 17.346039 -47.279961
v 21.923489 0.153404 -46.700645
v 21.923489 17.346039 -46.700645
v 21.923489 0.153404 -47.279961
v 21.923489 17.346039 -47.279961
vn -1.0000 -0.0000 -0.0000
vn -0.0000 -0.0000 -1.0000
vn 1.0000 -0.0000 -0.0000
vn -0.0000 -0.0000 1.0000
vn -0.0000 -1.0000 -0.0000
vn -0.0000 1.0000 -0.0000
vt 0.375000 0.000000
vt 0.625000 0.000000
vt 0.625000 0.250000
vt 0.375000 0.250000
vt 0.625000 0.500000
vt 0.375000 0.500000
vt 0.625000 0.750000
vt 0.375000 0.750000
vt 0.625000 1.000000
vt 0.375000 1.000000
vt 0.125000 0.500000
vt 0.125000 0.750000
vt 0.875000 0.500000
vt 0.875000 0.750000
s 0
f 25/53/13 26/54/13 28/55/13 27/56/13
f 27/56/14 28/55/14 32/57/14 31/58/14
f 31/58/15 32/57/15 30/59/15 29/60/15
f 29/60/16 30/59/16 26/61/16 25/62/16
f 27/63/17 31/58/17 29/60/17 25/64/17
f 32/57/18 28/65/18 26/66/18 30/59/18
o Куб.002
v -22.229195 0.153404 47.171921
v -22.229195 17.524485 47.171921
v -22.229195 0.153404 46.852859
v -22.229195 17.524485 46.852859
v 21.982521 0.153404 47.171921
v 21.982521 17.524485 47.171921
v 21.982521 0.153404 46.852859
v 21.982521 17.524485 46.852859
vn -1.0000 -0.0000 -0.0000
vn -0.0000 -0.0000 -1.0000
vn 1.0000 -0.0000 -0.0000
vn -0.0000 -0.0000 1.0000
vn -0.0000 -1.0000 -0.0000
vn -0.0000 1.0000 -0.0000
vt 0.375000 0.000000
vt 0.625000 0.000000
vt 0.625000 0.250000
vt 0.375000 0.250000
vt 0.625000 0.500000
vt 0.375000 0.500000
vt 0.625000 0.750000
vt 0.375000 0.750000
vt 0.625000 1.000000
vt 0.375000 1.000000
vt 0.125000 0.500000
vt 0.125000 0.750000
vt 0.875000 0.500000
vt 0.875000 0.750000
s 0
f 33/67/19 34/68/19 36/69/19 35/70/19
f 35/70/20 36/69/20 40/71/20 39/72/20
f 39/72/21 40/71/21 38/73/21 37/74/21
f 37/74/22 38/73/22 34/75/22 33/76/22
f 35/77/23 39/72/23 37/74/23 33/78/23
f 40/71/24 36/79/24 34/80/24 38/73/24
o Куб.003
v -21.745556 0.153404 46.989227
v -21.745556 0.153404 46.989227
v -21.745556 0.153404 -46.544769
v -21.745556 0.153404 -46.544769
v -20.532978 0.153404 46.989227
v -20.532978 0.153404 46.989227
v -20.532978 0.153404 -46.544769
v -20.532978 0.153404 -46.544769
vn -0.0000 1.0000 -0.0000
vn -0.0000 -1.0000 -0.0000
vt 0.375000 0.000000
vt 0.625000 0.000000
vt 0.625000 0.250000
vt 0.375000 0.250000
vt 0.625000 0.500000
vt 0.375000 0.500000
vt 0.625000 0.750000
vt 0.375000 0.750000
vt 0.625000 1.000000
vt 0.375000 1.000000
vt 0.125000 0.500000
vt 0.125000 0.750000
vt 0.875000 0.500000
vt 0.875000 0.750000
s 0
f 41/81/25 42/82/25 44/83/25 43/84/25
f 43/84/25 44/83/25 48/85/25 47/86/25
f 47/86/25 48/85/25 46/87/25 45/88/25
f 45/88/25 46/87/25 42/89/25 41/90/25
f 43/91/26 47/86/26 45/88/26 41/92/26
f 48/85/25 44/93/25 42/94/25 46/87/25
o Куб.004
v -21.915630 0.153404 47.163139
v -21.915630 17.233826 47.163139
v -21.915630 0.153404 -46.725151
v -21.915630 17.233826 -46.725151
v -20.941723 0.153404 47.163139
v -20.941723 17.233826 47.163139
v -20.941723 0.153404 -46.725151
v -20.941723 17.233826 -46.725151
vn -1.0000 -0.0000 -0.0000
vn -0.0000 -0.0000 -1.0000
vn 1.0000 -0.0000 -0.0000
vn -0.0000 -0.0000 1.0000
vn -0.0000 -1.0000 -0.0000
vn -0.0000 1.0000 -0.0000
vt 0.375000 0.000000
vt 0.625000 0.000000
vt 0.625000 0.250000
vt 0.375000 0.250000
vt 0.625000 0.500000
vt 0.375000 0.500000
vt 0.625000 0.750000
vt 0.375000 0.750000
vt 0.625000 1.000000
vt 0.375000 1.000000
vt 0.125000 0.500000
vt 0.125000 0.750000
vt 0.875000 0.500000
vt 0.875000 0.750000
s 0
f 49/95/27 50/96/27 52/97/27 51/98/27
f 51/98/28 52/97/28 56/99/28 55/100/28
f 55/100/29 56/99/29 54/101/29 53/102/29
f 53/102/30 54/101/30 50/103/30 49/104/30
f 51/105/31 55/100/31 53/102/31 49/106/31
f 56/99/32 52/107/32 50/108/32 54/101/32
o Куб.005
v 21.621796 1.707509 -46.206001
v 21.621796 17.432285 -46.206001
v 21.621796 1.707509 -47.065697
v 21.621796 17.432285 -47.065697
v 146.196091 1.707509 -46.206001
v 146.196091 17.432285 -46.206001
v 146.196091 1.707509 -47.065697
v 146.196091 17.432285 -47.065697
vn -1.0000 -0.0000 -0.0000
vn -0.0000 -0.0000 -1.0000
vn 1.0000 -0.0000 -0.0000
vn -0.0000 -0.0000 1.0000
vn -0.0000 -1.0000 -0.0000
vn -0.0000 1.0000 -0.0000
vt 0.375000 0.000000
vt 0.625000 0.000000
vt 0.625000 0.250000
vt 0.375000 0.250000
vt 0.625000 0.500000
vt 0.375000 0.500000
vt 0.625000 0.750000
vt 0.375000 0.750000
vt 0.625000 1.000000
vt 0.375000 1.000000
vt 0.125000 0.500000
vt 0.125000 0.750000
vt 0.875000 0.500000
vt 0.875000 0.750000
s 0
f 57/109/33 58/110/33 60/111/33 59/112/33
f 59/112/34 60/111/34 64/113/34 63/114/34
f 63/114/35 64/113/35 62/115/35 61/116/35
f 61/116/36 62/115/36 58/117/36 57/118/36
f 59/119/37 63/114/37 61/116/37 57/120/37
f 64/113/38 60/121/38 58/122/38 62/115/38
