# Blender 4.1.1
# www.blender.org
mtllib zovutebatih.mtl
o Cube
v 146.779373 1.997482 -47.526398
v 146.779373 1.789712 -47.526398
v 146.779373 1.997482 47.024605
v 146.779373 1.789712 47.024605
v -22.090439 1.997482 -47.526398
v -22.090439 1.789712 -47.526398
v -22.090439 1.997482 47.024605
v -22.090439 1.789712 47.024605
vn -0.0000 1.0000 -0.0000
vn -0.0000 -0.0000 1.0000
vn -1.0000 -0.0000 -0.0000
vn -0.0000 -1.0000 -0.0000
vn 1.0000 -0.0000 -0.0000
vn -0.0000 -0.0000 -1.0000
vt 0.625000 0.500000
vt 0.875000 0.500000
vt 0.875000 0.750000
vt 0.625000 0.750000
vt 0.375000 0.750000
vt 0.625000 1.000000
vt 0.375000 1.000000
vt 0.375000 0.000000
vt 0.625000 0.000000
vt 0.625000 0.250000
vt 0.375000 0.250000
vt 0.125000 0.500000
vt 0.375000 0.500000
vt 0.125000 0.750000
s 0
usemtl Material
f 1/1/1 5/2/1 7/3/1 3/4/1
f 4/5/2 3/4/2 7/6/2 8/7/2
f 8/8/3 7/9/3 5/10/3 6/11/3
f 6/12/4 2/13/4 4/5/4 8/14/4
f 2/13/5 1/1/5 3/4/5 4/5/5
f 6/11/6 5/10/6 1/1/6 2/13/6
o Куб
v 21.715199 -0.036192 -47.309162
v 21.715199 17.544312 -47.309162
v 21.715199 -0.036192 47.046261
v 21.715199 17.544312 47.046261
v 22.056126 -0.036192 -47.309162
v 22.056126 17.544312 -47.309162
v 22.056126 -0.036192 47.046261
v 22.056126 17.544312 47.046261
v 21.715199 16.062801 -42.489422
v 21.715199 16.062801 -29.074427
v 21.715199 0.618537 -42.489422
v 21.715199 0.618537 -29.074427
v 22.056126 16.062801 -29.074427
v 22.056126 0.618537 -42.489422
v 22.056126 16.062801 -42.489422
v 22.056126 0.618537 -29.074427
vn -1.0000 -0.0000 -0.0000
vn -0.0000 -0.0000 1.0000
vn 1.0000 -0.0000 -0.0000
vn -0.0000 -0.0000 -1.0000
vn -0.0000 -1.0000 -0.0000
vn -0.0000 1.0000 -0.0000
vt 0.625000 0.000000
vt 0.625000 0.250000
vt 0.375000 0.250000
vt 0.375000 0.000000
vt 0.384310 0.012770
vt 0.384310 0.048314
vt 0.603932 0.048314
vt 0.603932 0.012770
vt 0.625000 0.500000
vt 0.375000 0.500000
vt 0.603933 0.737230
vt 0.625000 0.750000
vt 0.375000 0.750000
vt 0.384310 0.737230
vt 0.603932 0.701686
vt 0.384310 0.701686
vt 0.625000 1.000000
vt 0.375000 1.000000
vt 0.125000 0.500000
vt 0.125000 0.750000
vt 0.875000 0.500000
vt 0.875000 0.750000
vt 0.375000 0.339510
vt 0.375000 0.372413
vt 0.625000 0.372413
vt 0.625000 0.339510
vt 0.375000 0.877587
vt 0.375000 0.910490
vt 0.625000 0.910490
vt 0.625000 0.877587
vt 0.247413 0.750000
vt 0.247413 0.500000
vt 0.214510 0.500000
vt 0.214510 0.750000
vt 0.752587 0.500000
vt 0.752587 0.750000
vt 0.785490 0.750000
vt 0.785490 0.500000
s 0
f 10/15/7 17/22/7 18/21/7 20/20/7 19/19/7 9/18/7 11/17/7 12/16/7
f 9/18/7 19/19/7 17/22/7 10/15/7
f 11/17/8 15/24/8 16/23/8 12/16/8
f 23/25/9 22/28/9 13/27/9 14/26/9
f 22/28/9 24/30/9 21/29/9 23/25/9 14/26/9 16/23/9 15/24/9 13/27/9
f 13/27/10 9/32/10 10/31/10 14/26/10
f 11/33/11 9/34/11 13/27/11 15/24/11
f 16/23/12 14/26/12 10/36/12 12/35/12
f 21/37/10 24/40/10 20/39/10 18/38/10
f 17/41/8 19/44/8 22/43/8 23/42/8
f 17/45/11 23/48/11 21/47/11 18/46/11
f 20/49/12 24/52/12 22/51/12 19/50/12
o Куб.001
v -21.893898 0.153404 -46.700645
v -21.893898 17.346039 -46.700645
v -21.893898 0.153404 -47.279961
v -21.893898 17.346039 -47.279961
v 21.923489 0.153404 -46.700645
v 21.923489 17.346039 -46.700645
v 21.923489 0.153404 -47.279961
v 21.923489 17.346039 -47.279961
vn -1.0000 -0.0000 -0.0000
vn -0.0000 -0.0000 -1.0000
vn 1.0000 -0.0000 -0.0000
vn -0.0000 -0.0000 1.0000
vn -0.0000 -1.0000 -0.0000
vn -0.0000 1.0000 -0.0000
vt 0.375000 0.000000
vt 0.625000 0.000000
vt 0.625000 0.250000
vt 0.375000 0.250000
vt 0.625000 0.500000
vt 0.375000 0.500000
vt 0.625000 0.750000
vt 0.375000 0.750000
vt 0.625000 1.000000
vt 0.375000 1.000000
vt 0.125000 0.500000
vt 0.125000 0.750000
vt 0.875000 0.500000
vt 0.875000 0.750000
s 0
f 25/53/13 26/54/13 28/55/13 27/56/13
f 27/56/14 28/55/14 32/57/14 31/58/14
f 31/58/15 32/57/15 30/59/15 29/60/15
f 29/60/16 30/59/16 26/61/16 25/62/16
f 27/63/17 31/58/17 29/60/17 25/64/17
f 32/57/18 28/65/18 26/66/18 30/59/18
o Куб.002
v -22.229195 0.153404 47.171921
v -22.229195 17.524485 47.171921
v -22.229195 0.153404 46.852859
v -22.229195 17.524485 46.852859
v 21.982521 0.153404 47.171921
v 21.982521 17.524485 47.171921
v 21.982521 0.153404 46.852859
v 21.982521 17.524485 46.852859
vn -1.0000 -0.0000 -0.0000
vn -0.0000 -0.0000 -1.0000
vn 1.0000 -0.0000 -0.0000
vn -0.0000 -0.0000 1.0000
vn -0.0000 -1.0000 -0.0000
vn -0.0000 1.0000 -0.0000
vt 0.375000 0.000000
vt 0.625000 0.000000
vt 0.625000 0.250000
vt 0.375000 0.250000
vt 0.625000 0.500000
vt 0.375000 0.500000
vt 0.625000 0.750000
vt 0.375000 0.750000
vt 0.625000 1.000000
vt 0.375000 1.000000
vt 0.125000 0.500000
vt 0.125000 0.750000
vt 0.875000 0.500000
vt 0.875000 0.750000
s 0
f 33/67/19 34/68/19 36/69/19 35/70/19
f 35/70/20 36/69/20 40/71/20 39/72/20
f 39/72/21 40/71/21 38/73/21 37/74/21
f 37/74/22 38/73/22 34/75/22 33/76/22
f 35/77/23 39/72/23 37/74/23 33/78/23
f 40/71/24 36/79/24 34/80/24 38/73/24
o Куб.003
v -21.745556 0.153404 46.989227
v -21.745556 0.153404 46.989227
v -21.745556 0.153404 -46.544769
v -21.745556 0.153404 -46.544769
v -20.532978 0.153404 46.989227
v -20.532978 0.153404 46.989227
v -20.532978 0.153404 -46.544769
v -20.532978 0.153404 -46.544769
vn -0.0000 1.0000 -0.0000
vn -0.0000 -1.0000 -0.0000
vt 0.375000 0.000000
vt 0.625000 0.000000
vt 0.625000 0.250000
vt 0.375000 0.250000
vt 0.625000 0.500000
vt 0.375000 0.500000
vt 0.625000 0.750000
vt 0.375000 0.750000
vt 0.625000 1.000000
vt 0.375000 1.000000
vt 0.125000 0.500000
vt 0.125000 0.750000
vt 0.875000 0.500000
vt 0.875000 0.750000
s 0
f 41/81/25 42/82/25 44/83/25 43/84/25
f 43/84/25 44/83/25 48/85/25 47/86/25
f 47/86/25 48/85/25 46/87/25 45/88/25
f 45/88/25 46/87/25 42/89/25 41/90/25
f 43/91/26 47/86/26 45/88/26 41/92/26
f 48/85/25 44/93/25 42/94/25 46/87/25
o Куб.004
v -21.915630 0.153404 47.163139
v -21.915630 17.233826 47.163139
v -21.915630 0.153404 -46.725151
v -21.915630 17.233826 -46.725151
v -20.941723 0.153404 47.163139
v -20.941723 17.233826 47.163139
v -20.941723 0.153404 -46.725151
v -20.941723 17.233826 -46.725151
vn -1.0000 -0.0000 -0.0000
vn -0.0000 -0.0000 -1.0000
vn 1.0000 -0.0000 -0.0000
vn -0.0000 -0.0000 1.0000
vn -0.0000 -1.0000 -0.0000
vn -0.0000 1.0000 -0.0000
vt 0.375000 0.000000
vt 0.625000 0.000000
vt 0.625000 0.250000
vt 0.375000 0.250000
vt 0.625000 0.500000
vt 0.375000 0.500000
vt 0.625000 0.750000
vt 0.375000 0.750000
vt 0.625000 1.000000
vt 0.375000 1.000000
vt 0.125000 0.500000
vt 0.125000 0.750000
vt 0.875000 0.500000
vt 0.875000 0.750000
s 0
f 49/95/27 50/96/27 52/97/27 51/98/27
f 51/98/28 52/97/28 56/99/28 55/100/28
f 55/100/29 56/99/29 54/101/29 53/102/29
f 53/102/30 54/101/30 50/103/30 49/104/30
f 51/105/31 55/100/31 53/102/31 49/106/31
f 56/99/32 52/107/32 50/108/32 54/101/32
o Куб.005
v 21.621796 1.707509 -46.206001
v 21.621796 17.432285 -46.206001
v 21.621796 1.707509 -47.065697
v 21.621796 17.432285 -47.065697
v 146.196091 1.707509 -46.206001
v 146.196091 17.432285 -46.206001
v 146.196091 1.707509 -47.065697
v 146.196091 17.432285 -47.065697
vn -1.0000 -0.0000 -0.0000
vn -0.0000 -0.0000 -1.0000
vn 1.0000 -0.0000 -0.0000
vn -0.0000 -0.0000 1.0000
vn -0.0000 -1.0000 -0.0000
vn -0.0000 1.0000 -0.0000
vt 0.375000 0.000000
vt 0.625000 0.000000
vt 0.625000 0.250000
vt 0.375000 0.250000
vt 0.625000 0.500000
vt 0.375000 0.500000
vt 0.625000 0.750000
vt 0.375000 0.750000
vt 0.625000 1.000000
vt 0.375000 1.000000
vt 0.125000 0.500000
vt 0.125000 0.750000
vt 0.875000 0.500000
vt 0.875000 0.750000
s 0
f 57/109/33 58/110/33 60/111/33 59/112/33
f 59/112/34 60/111/34 64/113/34 63/114/34
f 63/114/35 64/113/35 62/115/35 61/116/35
f 61/116/36 62/115/36 58/117/36 57/118/36
f 59/119/37 63/114/37 61/116/37 57/120/37
f 64/113/38 60/121/38 58/122/38 62/115/38
o Куб.006
v 145.089874 1.847656 46.083088
v 145.089874 17.256672 46.083088
v 145.089874 1.847656 -47.066853
v 145.089874 17.256672 -47.066853
v 146.140808 1.847656 46.083088
v 146.140808 17.256672 46.083088
v 146.140808 1.847656 -47.066853
v 146.140808 17.256672 -47.066853
vn -1.0000 -0.0000 -0.0000
vn -0.0000 -0.0000 -1.0000
vn 1.0000 -0.0000 -0.0000
vn -0.0000 -0.0000 1.0000
vn -0.0000 -1.0000 -0.0000
vn -0.0000 1.0000 -0.0000
vt 0.375000 0.000000
vt 0.625000 0.000000
vt 0.625000 0.250000
vt 0.375000 0.250000
vt 0.625000 0.500000
vt 0.375000 0.500000
vt 0.625000 0.750000
vt 0.375000 0.750000
vt 0.625000 1.000000
vt 0.375000 1.000000
vt 0.125000 0.500000
vt 0.125000 0.750000
vt 0.875000 0.500000
vt 0.875000 0.750000
s 0
f 65/123/39 66/124/39 68/125/39 67/126/39
f 67/126/40 68/125/40 72/127/40 71/128/40
f 71/128/41 72/127/41 70/129/41 69/130/41
f 69/130/42 70/129/42 66/131/42 65/132/42
f 67/133/43 71/128/43 69/130/43 65/134/43
f 72/127/44 68/135/44 66/136/44 70/129/44
o Куб.007
v 21.761612 0.566631 46.230999
v 21.761612 17.469894 46.230999
v 21.761612 0.566631 44.860760
v 21.761612 17.469894 44.860760
v 146.248566 0.566631 46.230999
v 146.248566 17.469894 46.230999
v 146.248566 0.566631 44.860760
v 146.248566 17.469894 44.860760
vn -1.0000 -0.0000 -0.0000
vn -0.0000 -0.0000 -1.0000
vn 1.0000 -0.0000 -0.0000
vn -0.0000 -0.0000 1.0000
vn -0.0000 -1.0000 -0.0000
vn -0.0000 1.0000 -0.0000
vt 0.375000 0.000000
vt 0.625000 0.000000
vt 0.625000 0.250000
vt 0.375000 0.250000
vt 0.625000 0.500000
vt 0.375000 0.500000
vt 0.625000 0.750000
vt 0.375000 0.750000
vt 0.625000 1.000000
vt 0.375000 1.000000
vt 0.125000 0.500000
vt 0.125000 0.750000
vt 0.875000 0.500000
vt 0.875000 0.750000
s 0
f 73/137/45 74/138/45 76/139/45 75/140/45
f 75/140/46 76/139/46 80/141/46 79/142/46
f 79/142/47 80/141/47 78/143/47 77/144/47
f 77/144/48 78/143/48 74/145/48 73/146/48
f 75/147/49 79/142/49 77/144/49 73/148/49
f 80/141/50 76/149/50 74/150/50 78/143/50
o Куб.008
v 106.698746 -0.538558 7.245502
v 106.698746 17.903561 7.245502
v 108.282028 -0.538558 7.245502
v 108.282028 17.903561 7.245502
v 108.282028 17.903561 -47.125443
v 108.282028 -0.538558 -47.125443
v 106.698746 17.903561 -47.125443
v 106.698746 -0.538558 -47.125443
v 108.282028 16.308851 -40.303204
v 108.282028 16.308851 -33.395340
v 108.282028 2.519405 -33.395340
v 108.282028 2.519405 -40.303204
v 106.698746 2.519405 -33.395340
v 106.698746 16.308851 -33.395340
v 106.698746 2.519405 -40.303204
v 106.698746 16.308851 -40.303204
vn -0.0000 -0.0000 1.0000
vn 1.0000 -0.0000 -0.0000
vn -1.0000 -0.0000 -0.0000
vn -0.0000 -1.0000 -0.0000
vn -0.0000 1.0000 -0.0000
vn -0.0000 -0.0000 -1.0000
vt 0.375000 0.000000
vt 0.625000 0.000000
vt 0.625000 0.250000
vt 0.375000 0.250000
vt 0.603382 0.387725
vt 0.625000 0.407486
vt 0.375000 0.407486
vt 0.416454 0.387725
vt 0.603382 0.367717
vt 0.416454 0.367717
vt 0.375000 0.842514
vt 0.625000 0.842514
vt 0.603382 0.862275
vt 0.416454 0.862275
vt 0.625000 1.000000
vt 0.375000 1.000000
vt 0.416454 0.882283
vt 0.603382 0.882283
vt 0.282486 0.750000
vt 0.125000 0.750000
vt 0.125000 0.500000
vt 0.282486 0.500000
vt 0.717514 0.500000
vt 0.875000 0.500000
vt 0.875000 0.750000
vt 0.717514 0.750000
vt 0.436651 0.750000
vt 0.588031 0.750000
vt 0.375000 0.500000
vt 0.625000 0.750000
vt 0.149365 0.500000
vt 0.347276 0.500000
vt 0.347276 0.750000
vt 0.149365 0.750000
vt 0.652724 0.750000
vt 0.652724 0.500000
vt 0.850635 0.500000
vt 0.850635 0.750000
s 0
f 81/151/51 83/154/51 84/153/51 82/152/51
f 89/155/52 92/158/52 86/157/52 85/156/52
f 86/157/52 92/158/52 91/160/52 90/159/52 89/155/52 85/156/52 84/153/52 83/154/52
f 88/161/53 95/164/53 96/163/53 87/162/53
f 96/163/53 94/168/53 93/167/53 95/164/53 88/161/53 81/166/53 82/165/53 87/162/53
f 88/169/54 86/172/54 83/171/54 81/170/54
f 85/173/55 87/176/55 82/175/55 84/174/55
f 86/177/56 88/177/56 87/178/56 85/178/56
f 92/179/51 89/153/51 96/153/51 95/179/51
f 91/166/56 93/166/56 94/180/56 90/180/56
f 95/181/55 93/184/55 91/183/55 92/182/55
f 90/185/54 94/188/54 96/187/54 89/186/54
o Куб.009
v 22.028366 -0.488971 6.447799
v 22.028366 17.953152 6.447799
v 22.028366 -0.488971 8.031082
v 22.028366 17.953152 8.031082
v 108.339096 -0.488971 6.447799
v 108.339096 17.953152 6.447799
v 108.339096 -0.488971 8.031082
v 108.339096 17.953152 8.031082
vn -1.0000 -0.0000 -0.0000
vn -0.0000 -0.0000 1.0000
vn 1.0000 -0.0000 -0.0000
vn -0.0000 -0.0000 -1.0000
vn -0.0000 -1.0000 -0.0000
vn -0.0000 1.0000 -0.0000
vt 0.375000 0.000000
vt 0.625000 0.000000
vt 0.625000 0.250000
vt 0.375000 0.250000
vt 0.625000 0.500000
vt 0.375000 0.500000
vt 0.625000 0.750000
vt 0.375000 0.750000
vt 0.625000 1.000000
vt 0.375000 1.000000
vt 0.125000 0.500000
vt 0.125000 0.750000
vt 0.875000 0.500000
vt 0.875000 0.750000
s 0
f 97/189/57 99/192/57 100/191/57 98/190/57
f 99/192/58 103/194/58 104/193/58 100/191/58
f 103/194/59 101/196/59 102/195/59 104/193/59
f 101/196/60 97/198/60 98/197/60 102/195/60
f 99/199/61 97/200/61 101/196/61 103/194/61
f 104/193/62 102/195/62 98/202/62 100/201/62
o Куб.010
v 22.028366 -0.488971 6.447799
v 22.028366 17.953152 6.447799
v 22.028366 -0.488971 8.031082
v 22.028366 17.953152 8.031082
v 108.339096 -0.488971 6.447799
v 108.339096 17.953152 6.447799
v 108.339096 -0.488971 8.031082
v 108.339096 17.953152 8.031082
vn -1.0000 -0.0000 -0.0000
vn -0.0000 -0.0000 1.0000
vn 1.0000 -0.0000 -0.0000
vn -0.0000 -0.0000 -1.0000
vn -0.0000 -1.0000 -0.0000
vn -0.0000 1.0000 -0.0000
vt 0.375000 0.000000
vt 0.625000 0.000000
vt 0.625000 0.250000
vt 0.375000 0.250000
vt 0.625000 0.500000
vt 0.375000 0.500000
vt 0.625000 0.750000
vt 0.375000 0.750000
vt 0.625000 1.000000
vt 0.375000 1.000000
vt 0.125000 0.500000
vt 0.125000 0.750000
vt 0.875000 0.500000
vt 0.875000 0.750000
s 0
f 105/203/63 107/206/63 108/205/63 106/204/63
f 107/206/64 111/208/64 112/207/64 108/205/64
f 111/208/65 109/210/65 110/209/65 112/207/65
f 109/210/66 105/212/66 106/211/66 110/209/66
f 107/213/67 105/214/67 109/210/67 111/208/67
f 112/207/68 110/209/68 106/216/68 108/215/68
o Куб.012
v 108.432449 16.332582 8.406704
v 108.432449 16.332582 15.314568
v 108.432449 2.543138 15.314568
v 108.432449 2.543138 8.406704
v 106.849167 2.543138 15.314568
v 106.849167 16.332582 15.314568
v 106.849167 2.543138 8.406704
v 106.849167 16.332582 8.406704
v 108.432449 16.752260 6.611303
v 108.432449 1.738378 6.611303
v 108.432449 -0.514824 6.611303
v 108.432449 17.927292 6.611303
v 106.849167 16.752260 6.611303
v 106.849167 1.738378 6.611303
v 106.849167 -0.514824 6.611303
v 106.849167 17.927292 6.611303
v 108.432449 -0.514824 46.273197
v 108.432449 17.927292 46.273197
v 106.849167 -0.514824 46.273197
v 106.849167 17.927292 46.273197
vn 1.0000 -0.0000 -0.0000
vn -1.0000 -0.0000 -0.0000
vn -0.0000 -1.0000 -0.0000
vn -0.0000 1.0000 -0.0000
vn -0.0000 -0.0000 1.0000
vn -0.0000 -0.0000 -1.0000
vt 0.416454 0.387725
vt 0.603382 0.387725
vt 0.609071 0.392926
vt 0.405544 0.392926
vt 0.625000 0.392926
vt 0.603382 0.367717
vt 0.416454 0.367717
vt 0.375000 0.392926
vt 0.375000 0.278045
vt 0.625000 0.278045
vt 0.603382 0.862275
vt 0.416454 0.862275
vt 0.405544 0.857074
vt 0.609071 0.857074
vt 0.416454 0.882283
vt 0.603382 0.882283
vt 0.625000 0.857074
vt 0.625000 0.971955
vt 0.375000 0.971955
vt 0.375000 0.857074
vt 0.267926 0.500000
vt 0.267926 0.750000
vt 0.153045 0.750000
vt 0.153045 0.500000
vt 0.732074 0.750000
vt 0.732074 0.500000
vt 0.846955 0.500000
vt 0.846955 0.750000
vt 0.375000 0.500000
vt 0.625000 0.250000
vt 0.375000 1.000000
vt 0.625000 0.750000
vt 0.149365 0.500000
vt 0.347276 0.500000
vt 0.347276 0.750000
vt 0.149365 0.750000
vt 0.652724 0.750000
vt 0.652724 0.500000
vt 0.850635 0.500000
vt 0.850635 0.750000
vt 0.403495 0.750000
vt 0.381004 0.750000
vt 0.553355 0.750000
vt 0.565083 0.750000
vt 0.407862 0.250000
vt 0.529915 0.250000
s 0
f 116/217/69 122/220/69 121/219/69 113/218/69
f 124/221/69 130/226/69 129/225/69 123/224/69 122/220/69 116/217/69 115/223/69 114/222/69 113/218/69 121/219/69
f 120/227/70 125/230/70 126/229/70 119/228/70
f 126/229/70 127/236/70 131/235/70 132/234/70 128/233/70 125/230/70 120/227/70 118/232/70 117/231/70 119/228/70
f 123/237/71 129/240/71 131/239/71 127/238/71
f 128/241/72 132/244/72 130/243/72 124/242/72
f 116/245/73 113/246/73 120/246/73 119/245/73
f 115/247/74 117/247/74 118/248/74 114/248/74
f 119/249/72 117/252/72 115/251/72 116/250/72
f 114/253/71 118/256/71 120/255/71 113/254/71
f 126/257/74 125/259/74 128/260/74 124/260/74 121/259/74 122/257/74 123/258/74 127/258/74
f 129/261/73 130/262/73 132/262/73 131/261/73
o Куб.011
v 143.604431 16.335579 16.937044
v 136.696579 16.335579 16.937044
v 136.696579 2.546135 16.937044
v 143.604431 2.546135 16.937044
v 136.696564 2.546135 15.353762
v 136.696564 16.335579 15.353762
v 143.604431 2.546135 15.353761
v 143.604431 16.335579 15.353761
v 145.399841 16.755257 16.937044
v 145.399841 1.741374 16.937044
v 145.399841 -0.511827 16.937044
v 145.399841 17.930286 16.937044
v 145.399841 16.755257 15.353760
v 145.399841 1.741374 15.353760
v 145.399841 -0.511827 15.353760
v 145.399841 17.930286 15.353760
v 107.076149 17.930286 16.937050
v 107.076149 -0.511827 16.937050
v 107.076149 17.930286 15.353767
v 107.076149 -0.511827 15.353767
vn -0.0000 -0.0000 1.0000
vn -0.0000 -0.0000 -1.0000
vn -0.0000 -1.0000 -0.0000
vn -0.0000 1.0000 -0.0000
vn -1.0000 -0.0000 -0.0000
vn 1.0000 -0.0000 -0.0000
vt 0.416454 0.387725
vt 0.603382 0.387725
vt 0.609071 0.392926
vt 0.405544 0.392926
vt 0.603382 0.367717
vt 0.416454 0.367717
vt 0.375000 0.392926
vt 0.375000 0.281921
vt 0.625000 0.281921
vt 0.625000 0.392926
vt 0.603382 0.862275
vt 0.416454 0.862275
vt 0.405544 0.857074
vt 0.609071 0.857074
vt 0.375000 0.857074
vt 0.416454 0.882283
vt 0.603382 0.882283
vt 0.625000 0.857074
vt 0.625000 0.968079
vt 0.375000 0.968079
vt 0.156921 0.500000
vt 0.267926 0.500000
vt 0.267926 0.750000
vt 0.156921 0.750000
vt 0.732074 0.750000
vt 0.732074 0.500000
vt 0.843079 0.500000
vt 0.843079 0.750000
vt 0.375000 0.500000
vt 0.625000 0.250000
vt 0.375000 1.000000
vt 0.625000 0.750000
vt 0.149365 0.500000
vt 0.347276 0.500000
vt 0.347276 0.750000
vt 0.149365 0.750000
vt 0.652724 0.750000
vt 0.652724 0.500000
vt 0.850635 0.500000
vt 0.850635 0.750000
vt 0.403495 0.750000
vt 0.381004 0.750000
vt 0.553355 0.750000
vt 0.565083 0.750000
vt 0.393727 0.166297
vt 0.393727 0.223379
vt 0.569244 0.223379
vt 0.569244 0.166297
s 0
f 136/263/75 142/266/75 141/265/75 133/264/75
f 141/265/75 144/272/75 149/271/75 150/270/75 143/269/75 142/266/75 136/263/75 135/268/75 134/267/75 133/264/75
f 140/273/76 145/276/76 146/275/76 139/274/76
f 147/277/76 152/282/76 151/281/76 148/280/76 145/276/76 140/273/76 138/279/76 137/278/76 139/274/76 146/275/76
f 150/283/77 152/286/77 147/285/77 143/284/77
f 148/287/78 151/290/78 149/289/78 144/288/78
f 136/291/79 133/292/79 140/292/79 139/291/79
f 135/293/80 137/293/80 138/294/80 134/294/80
f 139/295/78 137/298/78 135/297/78 136/296/78
f 134/299/77 138/302/77 140/301/77 133/300/77
f 146/303/80 145/305/80 148/306/80 144/306/80 141/305/80 142/303/80 143/304/80 147/304/80
f 150/307/79 149/310/79 151/309/79 152/308/79
